<?xml version="1.0" standalone="no"?>
<!DOCTYPE svg PUBLIC "-//W3C//DTD SVG 20010904//EN"
 "http://www.w3.org/TR/2001/REC-SVG-20010904/DTD/svg10.dtd">
<svg version="1.0" xmlns="http://www.w3.org/2000/svg"
 width="512.000000pt" height="512.000000pt" viewBox="0 0 512.000000 512.000000"
 preserveAspectRatio="xMidYMid meet">

<g transform="translate(0.000000,512.000000) scale(0.100000,-0.100000)"
fill="#000000" stroke="none">
<path d="M3822 4945 c-12 -9 -221 -278 -464 -598 -243 -320 -464 -610 -490
-645 -56 -73 -61 -109 -23 -147 l24 -25 216 0 216 0 -6 -97 c-41 -663 -174
-1147 -440 -1592 -234 -392 -588 -748 -996 -1001 -429 -267 -1019 -474 -1523
-536 -95 -11 -136 -75 -87 -135 19 -24 20 -24 227 -22 775 8 1503 174 2091
478 456 235 833 551 1133 950 232 309 429 692 550 1070 76 238 149 584 167
795 l8 85 223 5 c220 5 224 5 243 29 22 27 24 53 7 84 -6 12 -230 309 -496
660 -301 396 -495 642 -510 648 -32 12 -44 11 -70 -6z"/>
</g>
</svg>
