<?xml version="1.0" standalone="no"?>
<!DOCTYPE svg PUBLIC "-//W3C//DTD SVG 20010904//EN"
 "http://www.w3.org/TR/2001/REC-SVG-20010904/DTD/svg10.dtd">
<svg version="1.0" xmlns="http://www.w3.org/2000/svg"
 width="256.000000pt" height="256.000000pt" viewBox="0 0 256.000000 256.000000"
 preserveAspectRatio="xMidYMid meet">

<g transform="translate(0.000000,256.000000) scale(0.100000,-0.100000)"
fill="#000000" stroke="none">
<path d="M1131 2546 c-8 -9 -11 -58 -9 -151 3 -119 5 -139 21 -149 12 -8 22
-8 35 0 15 10 17 30 20 149 3 142 -3 165 -38 165 -10 0 -23 -6 -29 -14z"/>
<path d="M1252 1307 c-578 -578 -1052 -1059 -1052 -1068 0 -19 20 -39 40 -39
20 0 2120 2100 2120 2121 0 19 -20 39 -40 39 -8 0 -489 -474 -1068 -1053z"/>
<path d="M332 2228 c-23 -23 -11 -44 81 -136 92 -91 112 -103 135 -80 23 23
11 44 -81 136 -92 91 -112 103 -135 80z"/>
<path d="M1852 2147 c-91 -92 -103 -112 -80 -135 23 -23 44 -11 136 81 91 92
103 112 80 135 -23 23 -44 11 -136 -81z"/>
<path d="M1020 2104 c-36 -7 -103 -32 -150 -55 -69 -34 -101 -58 -175 -133
-73 -73 -99 -107 -132 -176 -62 -126 -77 -193 -77 -340 -1 -146 15 -215 74
-336 43 -87 131 -194 159 -194 19 0 41 19 41 35 0 7 -23 41 -52 76 -163 203
-192 477 -76 718 80 168 254 302 429 331 185 31 360 -25 503 -160 40 -39 78
-70 84 -70 12 0 42 28 42 40 0 17 -78 102 -130 142 -157 118 -354 162 -540
122z"/>
<path d="M12 1428 c-6 -6 -12 -20 -12 -29 0 -34 24 -40 165 -37 119 3 139 5
149 21 8 12 8 22 0 35 -10 15 -31 17 -150 20 -100 2 -143 -1 -152 -10z"/>
<path d="M2052 1388 c-7 -7 -12 -24 -12 -39 0 -24 -5 -28 -31 -31 -64 -6 -64
-70 -1 -76 26 -3 31 -8 34 -34 6 -63 70 -63 76 0 3 26 8 31 34 34 63 6 63 70
-1 76 -26 3 -31 7 -31 31 0 30 -16 51 -40 51 -9 0 -21 -5 -28 -12z"/>
<path d="M1616 1296 c-290 -121 -463 -441 -402 -746 65 -324 340 -549 672
-550 199 0 410 99 529 248 89 112 164 292 135 327 -19 22 -39 19 -110 -20
-335 -179 -745 42 -776 419 -8 84 7 167 44 250 41 92 12 115 -92 72z m-11
-113 c-20 -53 -29 -176 -18 -251 55 -374 435 -609 792 -489 39 13 71 22 71 19
0 -2 -14 -32 -32 -66 -48 -90 -165 -204 -258 -250 -309 -151 -670 -28 -817
279 -36 77 -63 184 -63 255 0 179 111 383 265 486 56 38 70 42 60 17z"/>
<path d="M2292 988 c-7 -7 -12 -33 -12 -59 l0 -48 -51 -3 c-96 -6 -96 -70 -1
-76 l51 -3 3 -51 c6 -95 70 -95 76 0 l3 51 51 3 c95 6 95 70 -1 76 l-51 3 0
48 c0 49 -12 71 -40 71 -9 0 -21 -5 -28 -12z"/>
<path d="M412 707 c-91 -92 -103 -112 -80 -135 23 -23 44 -11 136 81 91 92
103 112 80 135 -23 23 -44 11 -136 -81z"/>
</g>
</svg>
