<?xml version="1.0" standalone="no"?>
<!DOCTYPE svg PUBLIC "-//W3C//DTD SVG 20010904//EN"
 "http://www.w3.org/TR/2001/REC-SVG-20010904/DTD/svg10.dtd">
<svg version="1.0" xmlns="http://www.w3.org/2000/svg"
 width="512.000000pt" height="512.000000pt" viewBox="0 0 512.000000 512.000000"
 preserveAspectRatio="xMidYMid meet">

<g transform="translate(0.000000,512.000000) scale(0.100000,-0.100000)"
fill="#000000" stroke="none">
<path d="M3560 4764 c-36 -7 -101 -31 -145 -53 -68 -34 -99 -59 -202 -163
l-123 -123 491 -490 490 -490 124 128 c177 184 229 292 228 477 -1 117 -31
220 -93 315 -23 35 -99 120 -169 188 -106 103 -141 131 -204 161 -127 61 -265
79 -397 50z"/>
<path d="M1858 3193 c-842 -843 -1000 -1006 -1018 -1047 -25 -60 -32 -110 -66
-491 -25 -284 -26 -304 -11 -356 33 -111 136 -189 251 -189 116 0 690 59 735
74 24 9 60 26 80 38 40 23 2001 1977 2001 1993 0 10 -960 975 -970 975 -3 0
-454 -449 -1002 -997z"/>
<path d="M360 568 c-59 -30 -90 -77 -90 -137 0 -60 28 -111 76 -138 l39 -23
2173 0 c1985 0 2177 1 2208 16 50 24 77 68 82 133 4 66 -20 111 -78 145 -35
21 -36 21 -2200 24 l-2165 2 -45 -22z"/>
</g>
</svg>
