<?xml version="1.0" standalone="no"?>
<!DOCTYPE svg PUBLIC "-//W3C//DTD SVG 20010904//EN"
 "http://www.w3.org/TR/2001/REC-SVG-20010904/DTD/svg10.dtd">
<svg version="1.0" xmlns="http://www.w3.org/2000/svg"
 width="512.000000pt" height="512.000000pt" viewBox="0 0 512.000000 512.000000"
 preserveAspectRatio="xMidYMid meet">

<g transform="translate(0.000000,512.000000) scale(0.100000,-0.100000)"
fill="#000000" stroke="none">
<path d="M442 5100 c-106 -28 -187 -75 -267 -155 -81 -81 -127 -161 -155 -271
-20 -75 -20 -117 -20 -1794 0 -1677 0 -1719 20 -1794 11 -43 34 -105 52 -139
47 -88 156 -194 246 -239 139 -70 114 -69 1109 -66 l892 3 -41 60 c-63 94
-154 290 -187 403 -49 165 -64 299 -58 497 6 196 29 312 96 490 81 216 198
392 372 560 120 117 232 198 364 265 206 105 403 158 623 167 l143 6 -3 771
c-3 714 -5 775 -22 826 -70 212 -221 359 -421 410 -76 20 -111 20 -1374 19
-1243 0 -1299 -1 -1369 -19z m1370 -863 c84 -49 124 -149 97 -244 -16 -59 -78
-124 -135 -141 -59 -17 -929 -17 -988 0 -81 25 -146 118 -146 210 0 82 78 178
162 198 18 5 242 8 498 7 l465 -2 47 -28z m1080 -862 c124 -88 124 -262 0
-350 l-44 -30 -1011 -3 c-710 -2 -1023 0 -1050 8 -148 43 -195 247 -81 351 68
62 -10 59 1116 56 l1026 -2 44 -30z m-887 -834 c158 -72 167 -295 15 -381
l-45 -25 -590 0 -590 0 -47 28 c-121 71 -142 234 -43 332 22 22 56 46 75 52
24 7 218 11 610 12 536 1 578 -1 615 -18z"/>
<path d="M3440 2659 c-373 -45 -708 -285 -871 -624 -119 -246 -146 -509 -79
-772 85 -330 338 -620 653 -749 166 -67 222 -77 427 -78 169 0 193 2 283 26
96 27 260 98 315 137 l28 20 285 -285 c295 -296 343 -334 417 -334 123 0 222
99 222 222 0 74 -38 122 -334 417 l-285 285 20 28 c39 55 110 219 137 315 24
90 26 114 26 283 -1 205 -11 261 -78 427 -138 336 -458 599 -813 667 -106 20
-261 27 -353 15z m345 -454 c118 -39 180 -79 275 -174 192 -193 252 -439 171
-701 -30 -96 -87 -186 -171 -270 -118 -118 -239 -179 -402 -200 -211 -28 -410
42 -569 200 -95 94 -134 156 -175 275 -25 72 -28 93 -28 210 0 114 4 140 27
210 81 243 268 412 522 471 94 22 252 13 350 -21z"/>
</g>
</svg>
