<?xml version="1.0" standalone="no"?>
<!DOCTYPE svg PUBLIC "-//W3C//DTD SVG 20010904//EN"
 "http://www.w3.org/TR/2001/REC-SVG-20010904/DTD/svg10.dtd">
<svg version="1.0" xmlns="http://www.w3.org/2000/svg"
 width="512.000000pt" height="512.000000pt" viewBox="0 0 512.000000 512.000000"
 preserveAspectRatio="xMidYMid meet">

<g transform="translate(0.000000,512.000000) scale(0.100000,-0.100000)"
fill="#000000" stroke="none">
<path d="M2350 4509 c-765 -86 -1407 -605 -1649 -1334 -278 -837 38 -1754 774
-2246 369 -247 848 -366 1283 -318 776 84 1416 599 1661 1334 280 842 -43
1764 -789 2255 -370 243 -846 358 -1280 309z m260 -570 c60 -26 124 -91 152
-153 18 -41 22 -69 23 -146 0 -83 -4 -102 -28 -155 -52 -111 -125 -165 -237
-173 -83 -6 -152 22 -209 83 -123 133 -96 438 46 526 82 51 164 56 253 18z
m323 -780 c45 -23 74 -67 83 -125 5 -34 -8 -91 -74 -315 -221 -754 -313 -1081
-308 -1094 7 -19 28 -11 167 60 125 65 169 70 218 29 34 -28 49 -83 33 -118
-12 -26 -187 -153 -332 -242 -232 -141 -470 -220 -587 -194 -109 25 -167 96
-167 210 -1 57 24 146 197 705 108 352 197 646 197 653 0 22 -48 12 -131 -28
-92 -44 -140 -50 -195 -24 -41 19 -51 51 -35 103 12 41 86 106 230 204 246
166 566 246 704 176z"/>
</g>
</svg>
