<?xml version="1.0" standalone="no"?>
<!DOCTYPE svg PUBLIC "-//W3C//DTD SVG 20010904//EN"
 "http://www.w3.org/TR/2001/REC-SVG-20010904/DTD/svg10.dtd">
<svg version="1.0" xmlns="http://www.w3.org/2000/svg"
 width="256.000000pt" height="256.000000pt" viewBox="0 0 256.000000 256.000000"
 preserveAspectRatio="xMidYMid meet">

<g transform="translate(0.000000,256.000000) scale(0.100000,-0.100000)"
fill="#000000" stroke="none">
<path d="M25 2385 l-25 -24 0 -904 c0 -876 1 -906 19 -928 l19 -24 355 -5 355
-5 25 -23 c32 -31 41 -65 27 -108 -18 -55 -49 -64 -204 -64 -74 0 -142 -3
-151 -6 -24 -10 -46 -60 -39 -89 14 -57 -24 -55 879 -55 l832 0 21 23 c31 33
29 80 -4 106 -24 19 -40 21 -171 21 l-145 0 -29 29 c-33 33 -38 75 -15 120 26
49 41 51 402 51 l335 0 24 25 25 24 0 906 0 906 -25 24 -24 25 -1231 0 -1231
0 -24 -25z m2385 -930 l0 -805 -1130 0 -1130 0 0 805 0 805 1130 0 1130 0 0
-805z m-790 -981 c-6 -14 -10 -47 -10 -74 0 -27 4 -60 10 -74 l10 -26 -345 0
-344 0 7 33 c9 42 9 94 -2 135 l-8 32 346 0 346 0 -10 -26z"/>
<path d="M583 1823 c-7 -2 -72 -80 -145 -171 -105 -132 -132 -173 -132 -197 0
-25 27 -66 133 -198 89 -112 141 -169 157 -173 53 -13 104 37 90 88 -3 13 -51
79 -106 148 -55 69 -100 129 -100 133 0 5 31 48 68 95 160 203 164 211 117
257 -22 23 -53 30 -82 18z"/>
<path d="M866 1809 c-34 -27 -36 -77 -3 -107 23 -22 26 -22 418 -22 l396 0 21
23 c31 33 29 80 -4 106 -26 20 -37 21 -414 21 -377 0 -388 -1 -414 -21z"/>
<path d="M1895 1805 c-47 -46 -43 -54 117 -257 37 -47 68 -90 68 -95 0 -4 -45
-64 -100 -133 -55 -69 -103 -135 -106 -148 -14 -51 37 -101 90 -88 16 4 68 61
157 173 106 132 133 173 133 198 0 24 -27 65 -132 196 -72 92 -139 169 -148
173 -30 12 -55 6 -79 -19z"/>
<path d="M866 1509 c-34 -27 -36 -77 -3 -107 23 -22 26 -22 418 -22 l396 0 21
23 c31 33 29 80 -4 106 -26 20 -37 21 -414 21 -377 0 -388 -1 -414 -21z"/>
<path d="M866 1209 c-34 -27 -36 -77 -3 -107 23 -22 26 -22 418 -22 l396 0 21
23 c31 33 29 80 -4 106 -26 20 -37 21 -414 21 -377 0 -388 -1 -414 -21z"/>
</g>
</svg>
